<svg xmlns="http://www.w3.org/2000/svg" xmlns:xlink="http://www.w3.org/1999/xlink" width="1080" zoomAndPan="magnify" viewBox="0 0 810 809.999993" height="1080" preserveAspectRatio="xMidYMid meet" version="1.0"><defs><clipPath id="a32e562b45"><path d="M 9 171.113281 L 810 171.113281 L 810 636 L 9 636 Z M 9 171.113281 " clip-rule="nonzero"/></clipPath></defs><g clip-path="url(#a32e562b45)"><path fill="#9e1929" d="M 724.453125 455.800781 C 691.5625 461.035156 655.96875 475.746094 624.230469 497.207031 C 601.898438 512.316406 580.730469 529.84375 560.269531 546.792969 C 527.507812 573.9375 493.625 602.011719 454.976562 619.792969 C 423.636719 634.214844 386.859375 639.160156 354.078125 633.367188 C 319.765625 627.285156 293.113281 609.742188 278.605469 583.863281 C 289.242188 564.269531 292.203125 541.367188 286.394531 521.488281 C 278.492188 494.453125 253.808594 474.015625 227.683594 472.878906 C 211.894531 472.222656 196.472656 478.371094 186.554688 489.398438 C 175.722656 501.433594 172.027344 519.230469 177.355469 533.667969 C 183.179688 549.449219 199.449219 559.851562 215.207031 557.867188 C 232.066406 555.738281 245.183594 539.300781 243.25 522.703125 C 242.257812 514.15625 236.980469 506.171875 229.140625 501.320312 C 221.8125 496.792969 213.398438 495.75 206.054688 498.425781 C 203.175781 499.480469 201.703125 502.648438 202.761719 505.53125 C 203.816406 508.410156 206.984375 509.882812 209.863281 508.828125 C 213.992188 507.308594 218.902344 508.011719 223.332031 510.75 C 228.308594 513.820312 231.652344 518.765625 232.257812 523.96875 C 233.460938 534.390625 224.515625 545.511719 213.832031 546.855469 C 203.222656 548.203125 191.785156 540.710938 187.753906 529.8125 C 183.820312 519.121094 186.632812 505.851562 194.792969 496.792969 C 202.535156 488.195312 214.628906 483.378906 227.203125 483.921875 C 248.738281 484.867188 269.148438 501.960938 275.757812 524.578125 C 280.90625 542.199219 277.996094 562.71875 268.015625 580.117188 C 267.949219 580.179688 267.886719 580.226562 267.820312 580.308594 C 225.1875 635.078125 165.085938 630.292969 126.582031 609.550781 C 85.050781 587.191406 49.390625 536.339844 69.246094 477.519531 C 70.109375 474.960938 69.003906 472.144531 66.605469 470.863281 C 11.207031 441.203125 0.855469 383.265625 14.695312 341.972656 C 26.835938 305.765625 61.261719 270.507812 121.683594 277.355469 C 111.445312 321.355469 126.421875 370.363281 159.328125 398.519531 C 180.089844 416.285156 207.253906 425.136719 234.417969 425.136719 C 262.03125 425.136719 289.640625 415.980469 310.566406 397.703125 C 330.738281 380.078125 344.242188 355.414062 347.601562 330.046875 C 351.183594 302.964844 343.136719 275.179688 326.085938 255.734375 C 304.617188 231.246094 268.140625 221.050781 237.410156 230.957031 C 207.574219 240.578125 185.308594 268.152344 183.242188 298.035156 C 181.050781 329.855469 204.007812 361.304688 233.394531 366.746094 C 248.417969 369.53125 265.085938 364.890625 277.996094 354.359375 C 290.539062 344.132812 297.898438 329.808594 298.199219 315.066406 C 298.265625 312.007812 295.832031 309.480469 292.777344 309.414062 C 292.746094 309.414062 292.699219 309.414062 292.664062 309.414062 C 289.660156 309.414062 287.195312 311.832031 287.128906 314.839844 C 286.890625 326.316406 281.019531 337.585938 271.003906 345.765625 C 260.574219 354.261719 247.265625 358.039062 235.410156 355.847656 C 211.304688 351.398438 192.472656 325.277344 194.296875 298.804688 C 196.058594 273.324219 215.175781 249.761719 240.800781 241.503906 C 267.453125 232.925781 299.097656 241.777344 317.734375 263.046875 C 332.707031 280.125 339.761719 304.628906 336.59375 328.589844 C 333.585938 351.335938 321.445312 373.46875 303.273438 389.347656 C 265.742188 422.125 204.390625 422.445312 166.527344 390.082031 C 135.539062 363.59375 122.117188 316.585938 133.617188 275.386719 C 133.777344 275.101562 133.90625 274.78125 134.019531 274.460938 C 156.335938 206.882812 208.96875 171.160156 286.25 171.160156 C 286.265625 171.160156 286.28125 171.160156 286.296875 171.160156 C 327.1875 171.175781 369.40625 188.445312 402.136719 218.570312 C 435.507812 249.285156 455.761719 289.28125 459.199219 331.199219 C 459.375 333.425781 460.878906 335.3125 462.992188 336.015625 C 465.085938 336.707031 467.421875 336.082031 468.894531 334.398438 C 493.960938 305.78125 537.332031 295.746094 572.03125 310.550781 C 606.777344 325.375 630.277344 364.011719 627.925781 402.40625 C 627.890625 402.902344 627.941406 403.398438 628.035156 403.878906 C 625.699219 417.292969 620.519531 429.808594 612.917969 440.179688 C 593.402344 466.78125 557.648438 480.113281 525.957031 472.609375 C 508.121094 468.382812 492.363281 457.996094 482.730469 444.117188 C 472.429688 429.28125 469.164062 410.074219 474.1875 393.988281 C 479.484375 377.039062 493.929688 364.089844 510.136719 361.769531 C 526.628906 359.417969 544.242188 369.292969 550.257812 384.289062 C 556.511719 399.863281 549.472656 419.515625 535.21875 426.382812 C 532.46875 427.710938 531.300781 431.023438 532.628906 433.777344 C 533.957031 436.53125 537.265625 437.699219 540.019531 436.371094 C 559.261719 427.121094 568.863281 400.855469 560.542969 380.160156 C 552.578125 360.3125 530.226562 347.699219 508.566406 350.804688 C 488.21875 353.71875 470.140625 369.757812 463.613281 390.691406 C 457.597656 409.976562 461.4375 432.882812 473.628906 450.457031 C 484.796875 466.558594 502.9375 478.578125 523.398438 483.410156 C 530.101562 484.996094 536.964844 485.765625 543.824219 485.765625 C 573.757812 485.765625 603.894531 471.230469 621.84375 446.757812 C 630.308594 435.234375 636.097656 421.40625 638.785156 406.632812 C 669.964844 394.53125 706.917969 395.445312 740.753906 409.304688 C 769.550781 421.101562 793.640625 441.253906 809.03125 465.949219 C 784.621094 454.3125 755.761719 450.808594 724.453125 455.800781 Z M 724.453125 455.800781 " fill-opacity="1" fill-rule="nonzero"/></g></svg>