<svg xmlns="http://www.w3.org/2000/svg" xmlns:xlink="http://www.w3.org/1999/xlink" width="1080" zoomAndPan="magnify" viewBox="0 0 810 809.999993" height="1080" preserveAspectRatio="xMidYMid meet" version="1.0"><path fill="#ffffff" d="M 502.832031 17.507812 C 486.480469 11.832031 469.769531 7.558594 452.703125 4.6875 C 435.636719 1.820312 418.449219 0.390625 401.140625 0.40625 C 314.054688 0.40625 236.488281 36.488281 188.433594 99.429688 C 184.226562 104.832031 180.296875 110.429688 176.648438 116.222656 C 173 122.019531 169.648438 127.980469 166.59375 134.109375 C 163.539062 140.238281 160.796875 146.503906 158.371094 152.90625 C 155.941406 159.3125 153.835938 165.820312 152.054688 172.433594 C 150.273438 179.046875 148.828125 185.730469 147.714844 192.488281 C 146.601562 199.246094 145.828125 206.042969 145.390625 212.878906 C 144.957031 219.714844 144.863281 226.554688 145.109375 233.398438 C 145.355469 240.242188 145.941406 247.058594 146.871094 253.84375 C 147.808594 260.464844 149.074219 267.023438 150.667969 273.519531 C 152.261719 280.011719 154.175781 286.414062 156.40625 292.71875 C 158.636719 299.023438 161.179688 305.199219 164.027344 311.25 C 166.875 317.300781 170.015625 323.195312 173.453125 328.929688 C 176.890625 334.667969 180.601562 340.21875 184.589844 345.585938 C 188.582031 350.949219 192.828125 356.105469 197.332031 361.046875 C 201.835938 365.988281 206.574219 370.691406 211.546875 375.160156 C 216.519531 379.628906 221.703125 383.839844 227.097656 387.789062 C 230.535156 390.503906 234.316406 392.597656 238.441406 394.070312 C 242.5625 395.539062 246.816406 396.3125 251.195312 396.386719 C 253.40625 396.261719 255.597656 395.96875 257.765625 395.503906 C 259.933594 395.042969 262.050781 394.410156 264.121094 393.617188 C 266.1875 392.820312 268.183594 391.867188 270.105469 390.761719 C 272.023438 389.652344 273.847656 388.402344 275.574219 387.011719 C 277.296875 385.617188 278.90625 384.101562 280.394531 382.457031 C 281.882812 380.8125 283.234375 379.0625 284.449219 377.207031 C 285.664062 375.351562 286.726562 373.414062 287.636719 371.394531 C 288.550781 369.371094 289.300781 367.292969 289.886719 365.152344 C 290.308594 363.992188 290.679688 362.8125 291.007812 361.621094 C 291.332031 360.429688 291.609375 359.226562 291.835938 358.011719 C 292.066406 356.796875 292.246094 355.574219 292.375 354.34375 C 292.503906 353.117188 292.585938 351.882812 292.617188 350.648438 C 292.648438 349.410156 292.628906 348.175781 292.558594 346.941406 C 292.492188 345.707031 292.375 344.476562 292.207031 343.253906 C 292.039062 342.027344 291.820312 340.8125 291.554688 339.605469 C 291.289062 338.398438 290.976562 337.203125 290.613281 336.023438 C 290.253906 334.839844 289.84375 333.675781 289.386719 332.527344 C 288.933594 331.378906 288.433594 330.25 287.886719 329.140625 C 287.339844 328.03125 286.75 326.945312 286.113281 325.886719 C 285.480469 324.824219 284.804688 323.789062 284.085938 322.785156 C 283.371094 321.777344 282.613281 320.800781 281.820312 319.855469 C 281.023438 318.910156 280.191406 318 279.320312 317.121094 C 278.453125 316.242188 277.546875 315.402344 276.613281 314.59375 C 275.675781 313.789062 274.707031 313.023438 273.707031 312.296875 C 270.335938 309.914062 267.132812 307.324219 264.09375 304.53125 C 261.050781 301.738281 258.203125 298.761719 255.546875 295.601562 C 252.886719 292.441406 250.441406 289.125 248.207031 285.652344 C 245.972656 282.179688 243.96875 278.578125 242.199219 274.851562 C 240.425781 271.121094 238.898438 267.292969 237.617188 263.367188 C 236.332031 259.441406 235.304688 255.449219 234.535156 251.394531 C 233.761719 247.335938 233.253906 243.246094 233.007812 239.125 C 232.757812 235.003906 232.773438 230.878906 233.054688 226.761719 C 233.292969 223.90625 233.613281 221.058594 234.019531 218.222656 C 234.421875 215.386719 234.910156 212.566406 235.480469 209.757812 C 236.050781 206.953125 236.703125 204.164062 237.4375 201.394531 C 238.171875 198.625 238.988281 195.878906 239.882812 193.160156 C 240.777344 190.4375 241.75 187.746094 242.804688 185.082031 C 243.859375 182.417969 244.988281 179.789062 246.195312 177.191406 C 247.40625 174.59375 248.6875 172.03125 250.046875 169.511719 C 251.402344 166.988281 252.835938 164.507812 254.339844 162.070312 C 255.839844 159.632812 257.414062 157.242188 259.058594 154.898438 C 260.703125 152.550781 262.414062 150.257812 264.195312 148.011719 C 265.972656 145.765625 267.816406 143.574219 269.722656 141.441406 C 271.628906 139.304688 273.597656 137.226562 275.628906 135.203125 C 277.660156 133.183594 279.746094 131.222656 281.890625 129.328125 C 284.035156 127.429688 286.234375 125.59375 288.484375 123.824219 C 290.738281 122.058594 293.039062 120.355469 295.390625 118.722656 C 297.742188 117.089844 300.140625 115.527344 302.585938 114.035156 C 310.429688 109.710938 318.523438 105.917969 326.863281 102.652344 C 335.207031 99.386719 343.722656 96.675781 352.417969 94.523438 C 361.113281 92.371094 369.910156 90.792969 378.808594 89.789062 C 387.710938 88.785156 396.636719 88.363281 405.59375 88.527344 C 469.78125 88.527344 521.675781 113.0625 544.40625 154.175781 C 588.9375 234.703125 523.277344 322.21875 460.347656 381.441406 C 448.296875 392.800781 434.054688 404.277344 418.984375 416.425781 C 362.199219 462.214844 297.835938 504.558594 309.5625 581.546875 C 309.667969 582.867188 309.835938 584.179688 310.0625 585.484375 C 310.289062 586.789062 310.570312 588.082031 310.914062 589.363281 C 311.257812 590.644531 311.65625 591.90625 312.113281 593.148438 C 312.570312 594.394531 313.082031 595.613281 313.648438 596.8125 C 314.214844 598.007812 314.832031 599.179688 315.507812 600.320312 C 316.179688 601.460938 316.898438 602.570312 317.671875 603.648438 C 318.445312 604.722656 319.261719 605.761719 320.128906 606.765625 C 320.996094 607.765625 321.90625 608.730469 322.855469 609.648438 C 323.808594 610.570312 324.800781 611.445312 325.832031 612.273438 C 326.863281 613.105469 327.933594 613.886719 329.035156 614.621094 C 330.136719 615.355469 331.269531 616.039062 332.433594 616.671875 C 333.597656 617.304688 334.785156 617.882812 336.003906 618.40625 C 337.21875 618.929688 338.457031 619.398438 339.714844 619.8125 C 340.972656 620.226562 342.246094 620.582031 343.535156 620.878906 C 344.828125 621.175781 346.128906 621.414062 347.441406 621.59375 C 348.753906 621.773438 350.070312 621.894531 351.390625 621.957031 C 372.925781 621.957031 396.023438 603.378906 395.757812 561.878906 C 395.519531 525.855469 493.53125 474.027344 539.367188 428.496094 C 588.53125 379.648438 619.644531 331.230469 635.359375 281.3125 C 671.183594 167.566406 615.449219 56.609375 502.832031 17.507812 Z M 502.832031 17.507812 " fill-opacity="1" fill-rule="nonzero"/><path fill="#ffffff" d="M 416.585938 746.863281 C 416.585938 748.933594 416.488281 750.996094 416.285156 753.054688 C 416.082031 755.113281 415.777344 757.15625 415.375 759.183594 C 414.972656 761.214844 414.46875 763.21875 413.871094 765.195312 C 413.269531 767.175781 412.574219 769.121094 411.785156 771.03125 C 410.992188 772.941406 410.109375 774.8125 409.136719 776.636719 C 408.160156 778.460938 407.097656 780.230469 405.949219 781.953125 C 404.800781 783.671875 403.570312 785.332031 402.261719 786.929688 C 400.949219 788.527344 399.5625 790.058594 398.101562 791.523438 C 396.640625 792.984375 395.109375 794.371094 393.511719 795.683594 C 391.914062 796.996094 390.253906 798.226562 388.535156 799.375 C 386.816406 800.523438 385.046875 801.585938 383.222656 802.5625 C 381.402344 803.539062 379.535156 804.421875 377.625 805.210938 C 375.714844 806.003906 373.769531 806.699219 371.792969 807.300781 C 369.8125 807.902344 367.8125 808.402344 365.785156 808.804688 C 363.757812 809.210938 361.714844 809.511719 359.65625 809.714844 C 357.601562 809.917969 355.539062 810.019531 353.46875 810.019531 C 351.402344 810.019531 349.339844 809.917969 347.285156 809.714844 C 345.226562 809.511719 343.183594 809.210938 341.15625 808.804688 C 339.128906 808.402344 337.125 807.902344 335.148438 807.300781 C 333.171875 806.699219 331.226562 806.003906 329.316406 805.210938 C 327.40625 804.421875 325.539062 803.539062 323.71875 802.5625 C 321.894531 801.585938 320.125 800.523438 318.402344 799.375 C 316.683594 798.226562 315.027344 796.996094 313.429688 795.683594 C 311.832031 794.371094 310.300781 792.984375 308.839844 791.523438 C 307.378906 790.058594 305.992188 788.527344 304.679688 786.929688 C 303.367188 785.332031 302.140625 783.671875 300.988281 781.949219 C 299.839844 780.230469 298.78125 778.460938 297.804688 776.636719 C 296.832031 774.8125 295.949219 772.941406 295.15625 771.03125 C 294.367188 769.121094 293.671875 767.175781 293.070312 765.195312 C 292.472656 763.21875 291.96875 761.214844 291.566406 759.183594 C 291.164062 757.15625 290.859375 755.113281 290.65625 753.054688 C 290.453125 750.996094 290.351562 748.933594 290.351562 746.863281 C 290.351562 744.796875 290.453125 742.730469 290.65625 740.671875 C 290.859375 738.613281 291.164062 736.570312 291.566406 734.542969 C 291.96875 732.511719 292.472656 730.507812 293.070312 728.53125 C 293.671875 726.550781 294.367188 724.605469 295.15625 722.695312 C 295.949219 720.785156 296.832031 718.917969 297.804688 717.09375 C 298.78125 715.269531 299.839844 713.496094 300.988281 711.777344 C 302.140625 710.054688 303.367188 708.398438 304.679688 706.796875 C 305.992188 705.199219 307.378906 703.667969 308.839844 702.207031 C 310.300781 700.742188 311.832031 699.355469 313.429688 698.042969 C 315.027344 696.730469 316.683594 695.5 318.402344 694.351562 C 320.125 693.203125 321.894531 692.140625 323.71875 691.164062 C 325.539062 690.191406 327.40625 689.304688 329.316406 688.515625 C 331.226562 687.722656 333.171875 687.027344 335.148438 686.425781 C 337.125 685.828125 339.128906 685.324219 341.15625 684.921875 C 343.183594 684.515625 345.226562 684.214844 347.285156 684.011719 C 349.339844 683.808594 351.402344 683.707031 353.46875 683.707031 C 355.539062 683.707031 357.601562 683.808594 359.65625 684.011719 C 361.714844 684.214844 363.757812 684.515625 365.785156 684.921875 C 367.8125 685.324219 369.8125 685.828125 371.792969 686.425781 C 373.769531 687.027344 375.714844 687.722656 377.625 688.515625 C 379.535156 689.304688 381.402344 690.191406 383.222656 691.164062 C 385.046875 692.140625 386.816406 693.203125 388.535156 694.351562 C 390.253906 695.5 391.914062 696.730469 393.511719 698.042969 C 395.109375 699.355469 396.640625 700.742188 398.101562 702.207031 C 399.5625 703.667969 400.949219 705.199219 402.261719 706.796875 C 403.570312 708.398438 404.800781 710.054688 405.949219 711.777344 C 407.097656 713.496094 408.160156 715.269531 409.136719 717.09375 C 410.109375 718.917969 410.992188 720.785156 411.785156 722.695312 C 412.574219 724.605469 413.269531 726.550781 413.871094 728.53125 C 414.46875 730.507812 414.972656 732.511719 415.375 734.542969 C 415.777344 736.570312 416.082031 738.613281 416.285156 740.671875 C 416.488281 742.730469 416.585938 744.796875 416.585938 746.863281 Z M 416.585938 746.863281 " fill-opacity="1" fill-rule="nonzero"/></svg>