<svg xmlns="http://www.w3.org/2000/svg" xmlns:xlink="http://www.w3.org/1999/xlink" width="1080" zoomAndPan="magnify" viewBox="0 0 810 809.999993" height="1080" preserveAspectRatio="xMidYMid meet" version="1.0"><defs><clipPath id="d94fb88e93"><path d="M 193 0 L 803.492188 0 L 803.492188 769 L 193 769 Z M 193 0 " clip-rule="nonzero"/></clipPath></defs><g clip-path="url(#d94fb88e93)"><path fill="#ffffff" d="M 803.460938 0.265625 L 797.59375 4.632812 C 754.589844 40.3125 703.691406 97.304688 644.902344 175.609375 C 615.347656 138.460938 570.839844 114.109375 511.367188 102.5625 C 446.621094 93.449219 394.070312 101.371094 353.710938 126.316406 C 274.480469 177.722656 224.203125 247.351562 202.878906 335.207031 C 188.015625 399.710938 190.675781 466.628906 210.851562 535.964844 C 228.101562 599.21875 260.292969 652.769531 307.425781 696.605469 C 354.871094 738.613281 409.332031 762.269531 470.8125 767.578125 C 522.734375 771.03125 572.917969 754.925781 621.371094 719.269531 C 676.929688 680.449219 707.371094 629.019531 712.695312 564.976562 C 720.871094 475.355469 701.703125 402.84375 655.1875 347.441406 C 619.949219 301.832031 574.902344 279.8125 520.046875 281.375 C 472.648438 283.445312 432.039062 312.707031 398.21875 369.160156 C 380.261719 403.878906 373.792969 436.777344 378.804688 467.863281 C 382.039062 489.691406 398.519531 514.042969 428.257812 540.921875 C 403.648438 513.21875 395.015625 483.941406 402.363281 453.078125 C 413.53125 412.617188 438.558594 379.859375 477.445312 354.796875 C 506.527344 341.074219 533.320312 342.144531 557.816406 358.007812 C 579.105469 371.179688 597.402344 398.835938 612.707031 440.980469 C 619.308594 460.6875 621.175781 488.578125 618.304688 524.652344 C 616.753906 551.339844 611.101562 572.914062 601.351562 589.375 C 599.804688 599.496094 582.714844 614.359375 550.082031 633.964844 C 527.828125 645.84375 509.050781 651.464844 493.75 650.832031 C 433.214844 643.777344 387.070312 609.144531 355.3125 546.929688 C 317.941406 479.820312 306.332031 411.304688 320.480469 341.386719 C 341.746094 268.777344 379.988281 220.316406 435.207031 196.003906 C 474.476562 187.039062 506.59375 186.140625 531.5625 193.316406 C 543.535156 196.34375 555.4375 201 567.277344 207.285156 C 582.777344 215.871094 599.75 227.820312 618.199219 243.136719 C 620.867188 245.070312 624.972656 246.570312 630.503906 247.625 C 647.058594 248.652344 662.675781 243.488281 677.347656 232.140625 C 684.183594 226.984375 689.375 221.847656 692.929688 216.738281 C 699.675781 202.789062 723.019531 160.847656 762.964844 90.914062 L 792.238281 30.402344 C 795.511719 23.851562 797.125 17.152344 797.074219 10.296875 L 803.460938 0.265625 " fill-opacity="1" fill-rule="nonzero"/></g><path fill="#ffffff" d="M 53.957031 744.464844 L 53.996094 744.464844 L 54.035156 744.46875 C 54.066406 744.46875 54.097656 744.472656 54.128906 744.476562 C 54.164062 744.484375 54.199219 744.488281 54.238281 744.496094 L 54.300781 744.507812 C 54.339844 744.515625 54.386719 744.523438 54.433594 744.535156 L 54.503906 744.554688 C 54.550781 744.566406 54.605469 744.578125 54.65625 744.59375 L 54.652344 744.597656 L 54.480469 744.597656 L 54.316406 744.59375 L 54.183594 744.59375 L 54.078125 744.585938 L 53.988281 744.582031 L 53.917969 744.574219 L 53.867188 744.5625 L 53.828125 744.554688 L 53.804688 744.542969 L 53.792969 744.53125 L 53.789062 744.519531 C 53.789062 744.511719 53.796875 744.503906 53.804688 744.496094 C 53.832031 744.476562 53.882812 744.464844 53.957031 744.464844 M 221.601562 356.515625 L 220.058594 358.179688 C 148.398438 451.390625 109.699219 507.042969 103.957031 525.128906 C 92.007812 549.390625 80.777344 573.167969 70.269531 596.460938 C 34.902344 674.222656 16.816406 714.6875 16.003906 717.863281 C 9.492188 740.953125 7.949219 759.488281 11.382812 773.476562 C 18.589844 797.683594 36.335938 807.207031 64.625 802.054688 C 111.234375 790.332031 151.863281 777.878906 186.511719 764.695312 C 202.816406 758.257812 216.800781 752.1875 228.460938 746.484375 C 241.097656 740.753906 263.386719 729.402344 295.320312 712.433594 C 304.542969 707.90625 311.117188 704.964844 315.039062 703.609375 C 314.632812 707.109375 267.722656 716.511719 174.3125 731.808594 C 167.847656 733.476562 135.714844 737.074219 77.917969 742.597656 C 101.761719 691.667969 130.058594 617.339844 162.816406 519.613281 L 196.460938 444.933594 C 201.804688 432.710938 206.625 420.820312 210.921875 409.261719 C 216.261719 395.445312 220.136719 382.757812 222.546875 371.199219 C 223.726562 366.316406 223.125 362.335938 220.746094 359.257812 L 221.601562 356.515625 " fill-opacity="1" fill-rule="nonzero"/></svg>