<svg xmlns="http://www.w3.org/2000/svg" xmlns:xlink="http://www.w3.org/1999/xlink" width="1080" zoomAndPan="magnify" viewBox="0 0 810 809.999993" height="1080" preserveAspectRatio="xMidYMid meet" version="1.0"><defs><clipPath id="80bd586b13"><path d="M 1 4.386719 L 804 4.386719 L 804 805.386719 L 1 805.386719 Z M 1 4.386719 " clip-rule="nonzero"/></clipPath></defs><g clip-path="url(#80bd586b13)"><path fill="#ffffff" d="M 784.328125 23.09375 C 772.164062 10.921875 755.992188 4.214844 738.8125 4.214844 C 721.621094 4.214844 705.449219 10.914062 693.285156 23.09375 C 679.515625 36.859375 672.847656 56.105469 674.894531 75.042969 L 411.734375 338.148438 L 250.316406 310.613281 C 247.378906 310.140625 244.417969 311.710938 243.253906 314.5 C 242.085938 317.269531 243.003906 320.488281 245.445312 322.25 L 324.1875 378.847656 L 2.980469 795.132812 C 0.996094 797.714844 1.230469 801.363281 3.523438 803.660156 C 4.785156 804.921875 6.433594 805.558594 8.101562 805.558594 C 9.492188 805.558594 10.882812 805.109375 12.054688 804.214844 L 427.113281 484.460938 L 485.15625 561.910156 C 486.425781 563.613281 488.480469 564.636719 490.441406 564.507812 C 493.945312 564.648438 496.984375 561.636719 496.984375 558.035156 C 496.984375 557.136719 496.804688 556.292969 496.476562 555.515625 L 469.167969 395.574219 L 732.40625 132.417969 C 734.632812 132.652344 736.851562 132.960938 739.078125 132.960938 C 756.085938 132.960938 772.15625 126.273438 784.304688 114.121094 C 809.417969 89 809.425781 48.175781 784.328125 23.09375 Z M 678.695312 167.796875 L 665.113281 103.132812 L 678.183594 90.054688 C 681.292969 99.046875 686.300781 107.265625 693.199219 114.171875 C 700.113281 121.085938 708.351562 126.101562 717.3125 129.199219 Z M 642.570312 203.914062 L 628.980469 139.246094 L 654.164062 114.066406 L 667.746094 178.734375 Z M 605.738281 240.734375 L 592.148438 176.066406 L 618.050781 150.171875 L 631.640625 214.839844 Z M 568.527344 277.9375 L 554.945312 213.269531 L 581.21875 187.003906 L 594.808594 251.671875 Z M 531.476562 314.972656 L 517.886719 250.316406 L 544.003906 224.203125 L 557.59375 288.871094 Z M 494.273438 352.175781 L 480.683594 287.515625 L 506.949219 261.25 L 520.539062 325.910156 Z M 462.226562 384.207031 L 442.660156 364.648438 L 423.089844 345.089844 L 469.746094 298.445312 L 483.335938 363.09375 Z M 433.542969 471.445312 C 432.507812 470.054688 430.953125 469.140625 429.234375 468.90625 C 427.484375 468.648438 425.78125 469.132812 424.398438 470.191406 L 43.820312 763.402344 L 338.519531 381.445312 C 339.589844 380.054688 340.054688 378.292969 339.796875 376.558594 C 339.539062 374.824219 338.597656 373.261719 337.171875 372.234375 L 275.742188 328.085938 L 410.8125 351.128906 L 433.5 373.804688 L 456.179688 396.480469 L 479.441406 532.695312 Z M 775.160156 104.953125 C 765.457031 114.65625 752.652344 119.996094 739.097656 119.996094 C 736.386719 119.996094 733.65625 119.78125 730.851562 119.324219 C 720.015625 117.769531 710.164062 112.832031 702.351562 105.023438 C 694.546875 97.21875 689.597656 87.363281 688.035156 76.410156 C 685.417969 60.398438 690.808594 43.886719 702.4375 32.25 C 712.148438 22.511719 725.074219 17.160156 738.800781 17.160156 C 752.53125 17.160156 765.4375 22.511719 775.160156 32.242188 C 795.214844 52.285156 795.214844 84.902344 775.160156 104.953125 Z M 775.160156 104.953125 " fill-opacity="1" fill-rule="nonzero"/></g><path fill="#ffffff" d="M 768.453125 38.949219 C 760.535156 31.023438 750 26.65625 738.800781 26.65625 C 727.605469 26.65625 717.070312 31.023438 709.152344 38.949219 C 692.757812 55.339844 692.714844 81.976562 709.066406 98.324219 C 716.976562 106.222656 727.492188 110.582031 738.671875 110.582031 C 749.90625 110.582031 760.472656 106.1875 768.441406 98.21875 C 776.359375 90.304688 780.730469 79.773438 780.71875 68.578125 C 780.71875 57.394531 776.367188 46.863281 768.453125 38.949219 Z M 759.28125 89.070312 C 748.265625 100.074219 729.167969 100.109375 718.210938 89.175781 C 706.910156 77.867188 706.953125 59.457031 718.304688 48.105469 C 723.78125 42.625 731.058594 39.613281 738.792969 39.613281 C 746.53125 39.613281 753.808594 42.632812 759.28125 48.105469 C 764.757812 53.578125 767.769531 60.855469 767.769531 68.589844 C 767.769531 76.320312 764.757812 83.597656 759.28125 89.070312 Z M 759.28125 89.070312 " fill-opacity="1" fill-rule="nonzero"/></svg>