<svg xmlns="http://www.w3.org/2000/svg" xmlns:xlink="http://www.w3.org/1999/xlink" width="1080" zoomAndPan="magnify" viewBox="0 0 810 809.999993" height="1080" preserveAspectRatio="xMidYMid meet" version="1.0"><defs><clipPath id="a1c3d76b22"><path d="M 192 685 L 477 685 L 477 802.59375 L 192 802.59375 Z M 192 685 " clip-rule="nonzero"/></clipPath><clipPath id="0ac7727ca2"><path d="M 98 7.59375 L 810 7.59375 L 810 83 L 98 83 Z M 98 7.59375 " clip-rule="nonzero"/></clipPath></defs><path fill="#ffffff" d="M 341.5625 728.445312 C 335.976562 728.449219 330.390625 728.316406 324.8125 728.042969 C 319.230469 727.773438 313.660156 727.367188 308.097656 726.820312 C 302.539062 726.277344 296.992188 725.597656 291.46875 724.78125 C 285.941406 723.960938 280.4375 723.011719 274.957031 721.921875 C 269.476562 720.835938 264.023438 719.613281 258.605469 718.257812 C 253.183594 716.902344 247.800781 715.414062 242.453125 713.792969 C 237.105469 712.175781 231.800781 710.425781 226.539062 708.542969 C 221.277344 706.664062 216.066406 704.652344 210.902344 702.515625 C 205.742188 700.378906 200.632812 698.117188 195.582031 695.730469 C 190.53125 693.339844 185.542969 690.828125 180.613281 688.195312 C 175.683594 685.5625 170.824219 682.808594 166.03125 679.9375 C 161.238281 677.066406 156.519531 674.078125 151.871094 670.972656 C 147.226562 667.871094 142.660156 664.652344 138.171875 661.324219 C 133.683594 657.996094 129.28125 654.558594 124.960938 651.011719 C 120.640625 647.46875 116.414062 643.820312 112.273438 640.066406 C 108.132812 636.3125 104.085938 632.460938 100.136719 628.507812 C 96.1875 624.558594 92.335938 620.511719 88.582031 616.367188 C 84.832031 612.226562 81.183594 607.996094 77.640625 603.675781 C 74.09375 599.355469 70.660156 594.949219 67.332031 590.460938 C 64.003906 585.972656 60.789062 581.402344 57.6875 576.757812 C 54.582031 572.109375 51.597656 567.386719 48.726562 562.59375 C 45.855469 557.800781 43.101562 552.9375 40.46875 548.007812 C 37.835938 543.078125 35.328125 538.085938 32.941406 533.035156 C 30.554688 527.980469 28.292969 522.875 26.15625 517.710938 C 24.019531 512.546875 22.011719 507.332031 20.132812 502.070312 C 18.253906 496.804688 16.503906 491.5 14.882812 486.152344 C 13.265625 480.804688 11.777344 475.417969 10.421875 469.996094 C 9.066406 464.574219 7.847656 459.121094 6.761719 453.640625 C 5.671875 448.160156 4.722656 442.652344 3.90625 437.125 C 3.089844 431.597656 2.410156 426.050781 1.867188 420.488281 C 1.320312 414.925781 0.914062 409.355469 0.644531 403.773438 C 0.375 398.191406 0.242188 392.605469 0.246094 387.015625 L 0.246094 350.605469 C 0.246094 350.261719 0.277344 349.925781 0.34375 349.589844 C 0.410156 349.257812 0.511719 348.929688 0.640625 348.617188 C 0.769531 348.300781 0.929688 348.003906 1.121094 347.71875 C 1.308594 347.433594 1.523438 347.171875 1.765625 346.933594 C 2.007812 346.691406 2.269531 346.476562 2.554688 346.285156 C 2.835938 346.097656 3.136719 345.9375 3.449219 345.804688 C 3.765625 345.675781 4.089844 345.578125 4.425781 345.511719 C 4.757812 345.445312 5.097656 345.410156 5.4375 345.410156 L 677.71875 345.410156 C 678.058594 345.410156 678.398438 345.445312 678.730469 345.511719 C 679.066406 345.578125 679.390625 345.675781 679.707031 345.804688 C 680.019531 345.9375 680.320312 346.097656 680.601562 346.285156 C 680.886719 346.476562 681.148438 346.691406 681.390625 346.933594 C 681.628906 347.171875 681.847656 347.433594 682.035156 347.71875 C 682.226562 348.003906 682.382812 348.300781 682.515625 348.617188 C 682.644531 348.929688 682.742188 349.257812 682.8125 349.589844 C 682.878906 349.925781 682.910156 350.261719 682.910156 350.605469 L 682.910156 387.015625 C 682.914062 392.605469 682.78125 398.191406 682.511719 403.773438 C 682.242188 409.355469 681.835938 414.929688 681.292969 420.492188 C 680.75 426.054688 680.070312 431.597656 679.253906 437.128906 C 678.4375 442.65625 677.484375 448.164062 676.398438 453.644531 C 675.3125 459.128906 674.089844 464.582031 672.734375 470.003906 C 671.382812 475.425781 669.894531 480.808594 668.273438 486.160156 C 666.65625 491.507812 664.90625 496.816406 663.027344 502.078125 C 661.144531 507.339844 659.136719 512.554688 657.003906 517.71875 C 654.867188 522.882812 652.605469 527.992188 650.21875 533.046875 C 647.828125 538.097656 645.320312 543.089844 642.6875 548.019531 C 640.054688 552.949219 637.304688 557.8125 634.429688 562.605469 C 631.558594 567.402344 628.574219 572.121094 625.46875 576.769531 C 622.367188 581.417969 619.148438 585.988281 615.824219 590.476562 C 612.496094 594.964844 609.058594 599.371094 605.515625 603.691406 C 601.96875 608.011719 598.320312 612.242188 594.570312 616.386719 C 590.816406 620.527344 586.964844 624.574219 583.015625 628.523438 C 579.0625 632.476562 575.015625 636.328125 570.878906 640.082031 C 566.738281 643.835938 562.507812 647.484375 558.1875 651.03125 C 553.867188 654.574219 549.464844 658.011719 544.972656 661.339844 C 540.484375 664.667969 535.917969 667.886719 531.273438 670.992188 C 526.625 674.09375 521.90625 677.082031 517.113281 679.953125 C 512.320312 682.828125 507.457031 685.578125 502.527344 688.210938 C 497.601562 690.84375 492.609375 693.355469 487.558594 695.742188 C 482.503906 698.132812 477.398438 700.394531 472.234375 702.53125 C 467.070312 704.667969 461.859375 706.675781 456.597656 708.554688 C 451.335938 710.4375 446.03125 712.1875 440.683594 713.804688 C 435.335938 715.425781 429.949219 716.914062 424.527344 718.269531 C 419.109375 719.621094 413.65625 720.84375 408.175781 721.929688 C 402.695312 723.019531 397.191406 723.96875 391.664062 724.785156 C 386.136719 725.601562 380.589844 726.28125 375.03125 726.828125 C 369.46875 727.371094 363.898438 727.777344 358.316406 728.046875 C 352.734375 728.316406 347.152344 728.449219 341.5625 728.445312 Z M 10.628906 355.796875 L 10.628906 387.015625 C 10.628906 392.433594 10.761719 397.847656 11.027344 403.257812 C 11.292969 408.671875 11.691406 414.070312 12.222656 419.464844 C 12.753906 424.855469 13.417969 430.230469 14.210938 435.589844 C 15.003906 440.945312 15.929688 446.285156 16.988281 451.597656 C 18.042969 456.910156 19.230469 462.195312 20.546875 467.449219 C 21.863281 472.703125 23.308594 477.925781 24.878906 483.109375 C 26.453125 488.292969 28.148438 493.433594 29.976562 498.535156 C 31.800781 503.636719 33.75 508.691406 35.820312 513.695312 C 37.894531 518.699219 40.085938 523.652344 42.402344 528.550781 C 44.71875 533.445312 47.152344 538.285156 49.707031 543.0625 C 52.261719 547.839844 54.929688 552.550781 57.714844 557.199219 C 60.496094 561.84375 63.394531 566.421875 66.402344 570.925781 C 69.414062 575.429688 72.53125 579.859375 75.757812 584.210938 C 78.984375 588.5625 82.316406 592.832031 85.75 597.019531 C 89.1875 601.207031 92.722656 605.308594 96.359375 609.320312 C 100 613.335938 103.730469 617.257812 107.5625 621.089844 C 111.390625 624.917969 115.3125 628.652344 119.324219 632.292969 C 123.339844 635.929688 127.4375 639.46875 131.625 642.902344 C 135.8125 646.339844 140.082031 649.671875 144.433594 652.898438 C 148.78125 656.128906 153.210938 659.246094 157.710938 662.253906 C 162.214844 665.265625 166.789062 668.164062 171.4375 670.949219 C 176.082031 673.734375 180.792969 676.402344 185.570312 678.957031 C 190.347656 681.511719 195.183594 683.945312 200.078125 686.261719 C 204.976562 688.578125 209.925781 690.773438 214.929688 692.847656 C 219.933594 694.917969 224.984375 696.867188 230.085938 698.691406 C 235.183594 700.519531 240.324219 702.21875 245.507812 703.789062 C 250.691406 705.363281 255.910156 706.808594 261.164062 708.125 C 266.417969 709.441406 271.699219 710.625 277.011719 711.683594 C 282.324219 712.738281 287.660156 713.664062 293.015625 714.460938 C 298.375 715.253906 303.75 715.917969 309.140625 716.449219 C 314.53125 716.980469 319.929688 717.378906 325.339844 717.644531 C 330.75 717.910156 336.160156 718.042969 341.578125 718.042969 C 346.996094 718.042969 352.40625 717.910156 357.816406 717.644531 C 363.226562 717.378906 368.625 716.980469 374.015625 716.449219 C 379.40625 715.917969 384.78125 715.253906 390.136719 714.460938 C 395.496094 713.664062 400.832031 712.738281 406.144531 711.683594 C 411.453125 710.625 416.738281 709.441406 421.992188 708.125 C 427.246094 706.808594 432.464844 705.363281 437.648438 703.789062 C 442.832031 702.21875 447.972656 700.519531 453.070312 698.691406 C 458.171875 696.867188 463.222656 694.917969 468.226562 692.847656 C 473.230469 690.773438 478.179688 688.578125 483.078125 686.261719 C 487.972656 683.945312 492.808594 681.511719 497.585938 678.957031 C 502.363281 676.402344 507.074219 673.734375 511.71875 670.949219 C 516.367188 668.164062 520.941406 665.265625 525.441406 662.253906 C 529.945312 659.246094 534.375 656.128906 538.722656 652.898438 C 543.074219 649.671875 547.34375 646.339844 551.53125 642.902344 C 555.714844 639.46875 559.816406 635.929688 563.828125 632.292969 C 567.84375 628.652344 571.765625 624.917969 575.59375 621.089844 C 579.425781 617.257812 583.15625 613.335938 586.792969 609.320312 C 590.433594 605.308594 593.96875 601.207031 597.40625 597.019531 C 600.839844 592.832031 604.171875 588.5625 607.398438 584.210938 C 610.625 579.859375 613.742188 575.429688 616.75 570.925781 C 619.761719 566.421875 622.65625 561.84375 625.441406 557.199219 C 628.226562 552.550781 630.894531 547.839844 633.449219 543.0625 C 636.003906 538.285156 638.4375 533.445312 640.753906 528.550781 C 643.066406 523.652344 645.261719 518.699219 647.335938 513.695312 C 649.40625 508.691406 651.355469 503.636719 653.179688 498.535156 C 655.003906 493.433594 656.703125 488.292969 658.277344 483.109375 C 659.847656 477.925781 661.292969 472.703125 662.609375 467.449219 C 663.925781 462.195312 665.109375 456.910156 666.167969 451.597656 C 667.222656 446.285156 668.148438 440.945312 668.945312 435.589844 C 669.738281 430.230469 670.402344 424.855469 670.933594 419.464844 C 671.464844 414.070312 671.863281 408.671875 672.128906 403.257812 C 672.394531 397.847656 672.527344 392.433594 672.527344 387.015625 L 672.527344 355.796875 Z M 10.628906 355.796875 " fill-opacity="1" fill-rule="nonzero"/><path fill="#ffffff" d="M 120.921875 142.914062 C 120.203125 142.914062 119.480469 142.878906 118.761719 142.808594 C 118.042969 142.742188 117.328125 142.636719 116.621094 142.496094 C 115.910156 142.359375 115.210938 142.1875 114.519531 141.980469 C 113.828125 141.773438 113.148438 141.53125 112.476562 141.261719 C 111.808594 140.988281 111.15625 140.683594 110.515625 140.347656 C 109.875 140.011719 109.253906 139.644531 108.652344 139.25 C 108.046875 138.851562 107.464844 138.429688 106.902344 137.976562 C 106.339844 137.523438 105.800781 137.042969 105.28125 136.539062 C 104.765625 136.035156 104.277344 135.503906 103.8125 134.953125 C 103.34375 134.398438 102.910156 133.824219 102.5 133.230469 C 102.089844 132.636719 101.710938 132.023438 101.359375 131.390625 C 101.007812 130.757812 100.691406 130.109375 100.402344 129.449219 C 100.117188 128.785156 99.863281 128.109375 99.640625 127.421875 C 99.417969 126.734375 99.230469 126.039062 99.074219 125.332031 C 98.921875 124.628906 98.800781 123.914062 98.714844 123.199219 C 98.628906 122.480469 98.578125 121.761719 98.5625 121.039062 C 98.546875 120.316406 98.566406 119.59375 98.621094 118.875 C 98.675781 118.15625 98.765625 117.4375 98.886719 116.726562 C 99.011719 116.015625 99.167969 115.3125 99.363281 114.613281 C 99.554688 113.917969 99.777344 113.234375 100.035156 112.558594 C 100.296875 111.882812 100.585938 111.222656 100.90625 110.578125 C 101.230469 109.929688 101.582031 109.300781 101.964844 108.6875 C 102.347656 108.074219 102.761719 107.484375 103.203125 106.910156 C 103.640625 106.339844 104.109375 105.789062 104.601562 105.261719 C 105.097656 104.734375 105.613281 104.234375 106.15625 103.757812 C 106.699219 103.28125 107.265625 102.828125 107.851562 102.40625 C 108.4375 101.984375 109.042969 101.59375 109.664062 101.230469 C 110.289062 100.867188 110.929688 100.535156 111.585938 100.230469 C 112.242188 99.929688 112.914062 99.660156 113.59375 99.425781 C 114.277344 99.1875 114.96875 98.984375 115.671875 98.816406 C 116.375 98.648438 117.082031 98.511719 117.796875 98.410156 C 118.511719 98.308594 119.230469 98.246094 119.953125 98.214844 L 227.996094 93.3125 C 228.613281 93.28125 229.21875 93.363281 229.808594 93.550781 C 230.398438 93.738281 230.9375 94.019531 231.425781 94.402344 C 231.914062 94.785156 232.320312 95.238281 232.644531 95.765625 C 232.972656 96.292969 233.195312 96.859375 233.320312 97.464844 C 233.515625 98.402344 233.589844 99.351562 233.542969 100.308594 C 233.496094 101.265625 233.332031 102.199219 233.046875 103.113281 C 232.761719 104.027344 232.363281 104.890625 231.859375 105.707031 C 231.351562 106.519531 230.753906 107.253906 230.058594 107.914062 C 228.359375 109.617188 226.664062 111.25 225.023438 112.828125 L 224.847656 113 C 217.585938 119.949219 210.726562 126.519531 205.402344 136.535156 C 204.972656 137.347656 204.367188 137.996094 203.59375 138.488281 C 202.816406 138.976562 201.96875 139.242188 201.054688 139.285156 L 122.105469 142.871094 C 121.628906 142.914062 121.226562 142.914062 120.921875 142.914062 Z M 219.105469 104.109375 L 120.410156 108.589844 C 119.636719 108.625 118.871094 108.730469 118.121094 108.914062 C 117.367188 109.097656 116.640625 109.351562 115.933594 109.675781 C 115.230469 110 114.566406 110.386719 113.9375 110.839844 C 113.308594 111.292969 112.730469 111.804688 112.203125 112.367188 C 111.671875 112.933594 111.203125 113.546875 110.792969 114.203125 C 110.382812 114.859375 110.039062 115.550781 109.761719 116.273438 C 109.484375 116.996094 109.28125 117.738281 109.148438 118.503906 C 109.015625 119.265625 108.957031 120.035156 108.972656 120.808594 C 108.992188 121.585938 109.082031 122.351562 109.246094 123.105469 C 109.410156 123.863281 109.648438 124.597656 109.957031 125.308594 C 110.261719 126.019531 110.636719 126.695312 111.074219 127.332031 C 111.511719 127.972656 112.007812 128.5625 112.5625 129.105469 C 113.113281 129.644531 113.714844 130.128906 114.363281 130.554688 C 115.007812 130.980469 115.691406 131.339844 116.40625 131.636719 C 117.125 131.929688 117.863281 132.152344 118.621094 132.300781 C 119.382812 132.449219 120.148438 132.527344 120.921875 132.527344 C 121.019531 132.527344 121.105469 132.527344 121.191406 132.527344 C 121.304688 132.515625 121.386719 132.507812 121.5 132.503906 L 197.699219 129.042969 C 203.558594 119.011719 210.722656 112.152344 217.664062 105.5 L 217.820312 105.351562 Z M 219.105469 104.109375 " fill-opacity="1" fill-rule="nonzero"/><path fill="#ffffff" d="M 247.117188 137.199219 C 246.597656 137.199219 246.089844 137.121094 245.59375 136.96875 C 245.097656 136.816406 244.636719 136.59375 244.203125 136.304688 C 243.773438 136.011719 243.398438 135.664062 243.070312 135.257812 C 242.746094 134.855469 242.488281 134.410156 242.296875 133.925781 C 242.105469 133.445312 241.988281 132.945312 241.945312 132.425781 C 241.902344 131.910156 241.9375 131.394531 242.046875 130.890625 C 242.160156 130.382812 242.34375 129.902344 242.601562 129.449219 C 242.855469 128.996094 243.171875 128.59375 243.546875 128.234375 C 244.695312 127.148438 245.859375 126.015625 247.007812 124.867188 C 254.824219 117.046875 258.3125 107.808594 257.371094 97.402344 C 257.339844 97.054688 257.34375 96.703125 257.382812 96.355469 C 257.421875 96.007812 257.496094 95.667969 257.605469 95.332031 C 257.714844 95 257.855469 94.679688 258.027344 94.375 C 258.199219 94.070312 258.402344 93.785156 258.632812 93.519531 C 258.863281 93.257812 259.117188 93.015625 259.398438 92.804688 C 259.675781 92.59375 259.972656 92.410156 260.289062 92.257812 C 260.605469 92.105469 260.933594 91.988281 261.273438 91.902344 C 261.613281 91.816406 261.957031 91.765625 262.308594 91.75 L 294.125 90.308594 C 294.601562 90.289062 295.070312 90.332031 295.535156 90.4375 C 296 90.546875 296.441406 90.714844 296.859375 90.945312 C 297.277344 91.175781 297.65625 91.457031 297.996094 91.792969 C 298.335938 92.128906 298.625 92.503906 298.859375 92.917969 C 301.992188 98.386719 301.460938 103.855469 297.402344 107.914062 C 295.679688 109.609375 294.019531 111.207031 292.390625 112.777344 L 291.707031 113.433594 C 285.316406 119.578125 279.285156 125.378906 274.332031 133.648438 C 273.886719 134.394531 273.289062 134.988281 272.539062 135.4375 C 271.792969 135.882812 270.984375 136.125 270.113281 136.164062 L 247.351562 137.195312 C 247.277344 137.195312 247.195312 137.199219 247.117188 137.199219 Z M 267.886719 101.894531 C 267.765625 106.289062 266.988281 110.5625 265.550781 114.71875 C 264.117188 118.875 262.089844 122.71875 259.46875 126.246094 L 266.925781 125.910156 C 272.269531 117.71875 278.484375 111.742188 284.507812 105.949219 L 285.1875 105.296875 C 286.671875 103.867188 288.179688 102.410156 289.71875 100.90625 Z M 267.886719 101.894531 " fill-opacity="1" fill-rule="nonzero"/><path fill="#ffffff" d="M 317.738281 134.011719 C 317.226562 134.011719 316.722656 133.9375 316.230469 133.789062 C 315.742188 133.640625 315.28125 133.421875 314.855469 133.136719 C 314.429688 132.851562 314.050781 132.507812 313.726562 132.113281 C 313.402344 131.714844 313.140625 131.277344 312.945312 130.804688 C 312.75 130.328125 312.625 129.835938 312.574219 129.324219 C 312.527344 128.8125 312.550781 128.308594 312.652344 127.804688 C 312.753906 127.300781 312.921875 126.820312 313.164062 126.367188 C 313.410156 125.914062 313.710938 125.507812 314.074219 125.144531 L 314.355469 124.863281 C 324.9375 114.28125 325.632812 102.640625 324.355469 94.738281 C 324.296875 94.378906 324.277344 94.015625 324.292969 93.648438 C 324.3125 93.28125 324.371094 92.921875 324.464844 92.570312 C 324.558594 92.214844 324.6875 91.875 324.855469 91.550781 C 325.019531 91.222656 325.21875 90.917969 325.449219 90.632812 C 325.679688 90.351562 325.9375 90.09375 326.222656 89.863281 C 326.507812 89.632812 326.816406 89.4375 327.144531 89.273438 C 327.46875 89.105469 327.808594 88.976562 328.164062 88.886719 C 328.519531 88.792969 328.878906 88.738281 329.242188 88.722656 L 359.402344 87.347656 C 360.316406 87.308594 361.179688 87.496094 361.992188 87.910156 C 362.808594 88.324219 363.46875 88.910156 363.972656 89.671875 L 364.0625 89.78125 C 371.621094 99.175781 367.039062 105.59375 364.714844 107.917969 C 363.402344 109.234375 362.082031 110.5 360.796875 111.726562 L 359.027344 113.425781 C 353.402344 118.839844 348.085938 123.953125 343.535156 130.746094 C 343.074219 131.429688 342.488281 131.976562 341.769531 132.378906 C 341.050781 132.785156 340.28125 133.003906 339.457031 133.042969 L 317.976562 134.011719 C 317.898438 134.011719 317.820312 134.011719 317.738281 134.011719 Z M 339.226562 127.851562 Z M 335.191406 98.84375 C 335.390625 103.113281 334.957031 107.316406 333.890625 111.453125 C 332.820312 115.589844 331.167969 119.480469 328.929688 123.117188 L 336.433594 122.78125 C 341.238281 116.132812 346.617188 110.957031 351.835938 105.941406 L 353.617188 104.226562 C 354.859375 103.039062 356.140625 101.808594 357.378906 100.574219 C 357.675781 100.273438 358.230469 99.71875 357.09375 97.847656 Z M 335.191406 98.84375 " fill-opacity="1" fill-rule="nonzero"/><path fill="#ffffff" d="M 387.988281 130.828125 C 387.492188 130.828125 387.007812 130.757812 386.53125 130.621094 C 386.054688 130.480469 385.609375 130.277344 385.191406 130.011719 C 384.777344 129.746094 384.40625 129.425781 384.078125 129.050781 C 383.753906 128.679688 383.484375 128.269531 383.277344 127.820312 C 383.070312 127.371094 382.929688 126.898438 382.855469 126.410156 C 382.78125 125.921875 382.777344 125.429688 382.84375 124.941406 C 382.910156 124.449219 383.042969 123.976562 383.246094 123.523438 C 383.445312 123.074219 383.707031 122.65625 384.027344 122.28125 C 393.214844 111.425781 392.972656 99.855469 391.144531 92.0625 C 391.058594 91.691406 391.011719 91.316406 391.007812 90.933594 C 391.003906 90.550781 391.042969 90.175781 391.121094 89.800781 C 391.199219 89.429688 391.320312 89.070312 391.476562 88.722656 C 391.636719 88.375 391.828125 88.050781 392.058594 87.746094 C 392.289062 87.441406 392.550781 87.167969 392.839844 86.917969 C 393.132812 86.671875 393.445312 86.460938 393.78125 86.28125 C 394.121094 86.105469 394.472656 85.964844 394.839844 85.867188 C 395.207031 85.765625 395.582031 85.707031 395.964844 85.691406 L 424.78125 84.378906 C 425.289062 84.355469 425.785156 84.40625 426.277344 84.53125 C 426.769531 84.652344 427.230469 84.84375 427.667969 85.105469 C 428.101562 85.363281 428.492188 85.679688 428.835938 86.050781 C 429.179688 86.421875 429.460938 86.835938 429.683594 87.292969 C 430.113281 88.148438 430.640625 88.933594 431.269531 89.652344 C 431.304688 89.695312 431.335938 89.734375 431.371094 89.773438 C 438.9375 99.171875 434.351562 105.59375 432.027344 107.914062 C 430.316406 109.628906 428.609375 111.269531 426.960938 112.859375 C 422.144531 117.464844 417.207031 122.1875 412.957031 127.824219 C 412.480469 128.460938 411.886719 128.957031 411.179688 129.320312 C 410.472656 129.683594 409.71875 129.871094 408.925781 129.890625 L 388.222656 130.824219 C 388.144531 130.824219 388.066406 130.828125 387.988281 130.828125 Z M 402.285156 95.800781 C 402.738281 99.957031 402.59375 104.09375 401.851562 108.210938 C 401.109375 112.324219 399.800781 116.25 397.925781 119.988281 L 406.1875 119.617188 C 410.386719 114.574219 414.902344 109.832031 419.742188 105.398438 C 421.375 103.828125 423.042969 102.21875 424.683594 100.578125 C 425.050781 100.210938 425.808594 99.449219 423.328125 96.347656 C 422.921875 95.871094 422.542969 95.390625 422.1875 94.898438 Z M 402.285156 95.800781 " fill-opacity="1" fill-rule="nonzero"/><path fill="#ffffff" d="M 457.765625 127.671875 C 457.292969 127.671875 456.824219 127.605469 456.371094 127.480469 C 455.914062 127.351562 455.480469 127.164062 455.074219 126.917969 C 454.667969 126.671875 454.304688 126.375 453.980469 126.03125 C 453.65625 125.683594 453.382812 125.300781 453.164062 124.878906 C 452.945312 124.460938 452.785156 124.015625 452.6875 123.550781 C 452.589844 123.089844 452.554688 122.617188 452.585938 122.144531 C 452.617188 121.671875 452.710938 121.210938 452.867188 120.761719 C 453.023438 120.316406 453.238281 119.898438 453.507812 119.507812 C 461.214844 108.457031 460.089844 97.019531 457.789062 89.375 C 457.675781 88.996094 457.605469 88.609375 457.582031 88.214844 C 457.554688 87.820312 457.574219 87.429688 457.636719 87.039062 C 457.703125 86.648438 457.808594 86.273438 457.957031 85.90625 C 458.109375 85.542969 458.296875 85.199219 458.523438 84.875 C 458.753906 84.554688 459.015625 84.261719 459.308594 84 C 459.605469 83.734375 459.925781 83.511719 460.269531 83.320312 C 460.617188 83.132812 460.980469 82.984375 461.359375 82.875 C 461.742188 82.769531 462.128906 82.707031 462.523438 82.6875 L 490.902344 81.378906 C 491.488281 81.351562 492.058594 81.421875 492.621094 81.585938 C 493.183594 81.753906 493.699219 82.007812 494.175781 82.351562 C 494.652344 82.691406 495.054688 83.105469 495.390625 83.582031 C 495.726562 84.0625 495.976562 84.585938 496.136719 85.148438 C 496.605469 86.820312 497.410156 88.3125 498.554688 89.621094 C 498.597656 89.671875 498.640625 89.722656 498.679688 89.773438 C 506.261719 99.1875 501.6875 105.597656 499.371094 107.914062 C 497.644531 109.609375 495.984375 111.207031 494.355469 112.777344 L 493.523438 113.578125 C 489.6875 117.132812 486.058594 120.886719 482.636719 124.839844 C 482.15625 125.417969 481.578125 125.867188 480.90625 126.191406 C 480.230469 126.515625 479.519531 126.6875 478.769531 126.703125 L 458.003906 127.667969 C 457.925781 127.671875 457.847656 127.671875 457.765625 127.671875 Z M 469.222656 92.777344 C 469.925781 96.832031 470.066406 100.902344 469.636719 104.996094 C 469.207031 109.089844 468.226562 113.046875 466.695312 116.863281 L 476.175781 116.425781 C 479.496094 112.652344 482.964844 109.320312 486.332031 106.085938 L 487.15625 105.292969 C 488.761719 103.746094 490.398438 102.171875 492.0625 100.535156 C 492.363281 100.234375 493.132812 99.460938 490.652344 96.355469 C 489.480469 95 488.492188 93.523438 487.683594 91.921875 Z M 469.222656 92.777344 " fill-opacity="1" fill-rule="nonzero"/><path fill="#ffffff" d="M 527.078125 124.519531 C 526.851562 124.519531 526.625 124.503906 526.402344 124.476562 C 526.175781 124.445312 525.957031 124.402344 525.738281 124.34375 C 525.519531 124.285156 525.304688 124.214844 525.097656 124.125 C 524.886719 124.039062 524.683594 123.941406 524.488281 123.828125 C 524.292969 123.714844 524.105469 123.589844 523.925781 123.453125 C 523.746094 123.316406 523.574219 123.167969 523.414062 123.007812 C 523.253906 122.847656 523.105469 122.679688 522.96875 122.5 C 522.828125 122.320312 522.703125 122.132812 522.589844 121.9375 C 522.476562 121.742188 522.375 121.542969 522.289062 121.332031 C 522.203125 121.125 522.128906 120.910156 522.070312 120.691406 C 522.007812 120.472656 521.964844 120.253906 521.933594 120.03125 C 521.902344 119.804688 521.886719 119.582031 521.886719 119.355469 C 521.882812 119.128906 521.898438 118.902344 521.925781 118.679688 C 521.953125 118.453125 521.996094 118.234375 522.054688 118.015625 C 522.113281 117.796875 522.183594 117.582031 522.269531 117.371094 C 522.351562 117.160156 522.453125 116.957031 522.5625 116.761719 C 529.011719 105.40625 527.003906 94.140625 524.1875 86.6875 C 524.042969 86.304688 523.945312 85.910156 523.894531 85.5 C 523.839844 85.09375 523.839844 84.6875 523.882812 84.28125 C 523.929688 83.871094 524.019531 83.476562 524.160156 83.089844 C 524.300781 82.703125 524.480469 82.339844 524.707031 81.996094 C 524.933594 81.652344 525.195312 81.34375 525.496094 81.0625 C 525.792969 80.78125 526.121094 80.539062 526.476562 80.335938 C 526.835938 80.132812 527.210938 79.976562 527.601562 79.863281 C 527.996094 79.75 528.398438 79.683594 528.808594 79.664062 L 785.976562 68.015625 C 786.707031 67.980469 787.4375 67.984375 788.171875 68.023438 C 788.902344 68.058594 789.628906 68.132812 790.351562 68.242188 C 791.078125 68.355469 791.792969 68.5 792.503906 68.679688 C 793.214844 68.859375 793.910156 69.074219 794.601562 69.324219 C 795.289062 69.570312 795.964844 69.855469 796.625 70.171875 C 797.285156 70.484375 797.929688 70.832031 798.554688 71.210938 C 799.183594 71.589844 799.789062 72 800.375 72.4375 C 800.960938 72.875 801.527344 73.339844 802.066406 73.835938 C 802.605469 74.328125 803.121094 74.847656 803.613281 75.394531 C 804.101562 75.9375 804.5625 76.503906 804.996094 77.09375 C 805.429688 77.683594 805.835938 78.292969 806.207031 78.925781 C 806.582031 79.554688 806.925781 80.199219 807.234375 80.863281 C 807.546875 81.527344 807.824219 82.203125 808.066406 82.894531 C 808.308594 83.585938 808.519531 84.285156 808.695312 84.996094 C 808.871094 85.707031 809.007812 86.425781 809.113281 87.152344 C 809.21875 87.875 809.285156 88.605469 809.320312 89.335938 C 809.351562 90.066406 809.347656 90.796875 809.308594 91.53125 C 809.269531 92.261719 809.195312 92.988281 809.085938 93.710938 C 808.976562 94.4375 808.832031 95.152344 808.648438 95.863281 C 808.46875 96.574219 808.253906 97.273438 808.003906 97.960938 C 807.753906 98.648438 807.472656 99.324219 807.160156 99.984375 C 806.84375 100.644531 806.496094 101.289062 806.117188 101.914062 C 805.738281 102.542969 805.332031 103.148438 804.894531 103.738281 C 804.453125 104.324219 803.988281 104.886719 803.496094 105.429688 C 803.003906 105.96875 802.484375 106.484375 801.941406 106.976562 C 801.398438 107.464844 800.832031 107.929688 800.242188 108.363281 C 799.652344 108.796875 799.042969 109.203125 798.414062 109.578125 C 797.785156 109.953125 797.140625 110.296875 796.476562 110.605469 C 795.8125 110.917969 795.136719 111.195312 794.449219 111.441406 C 793.757812 111.6875 793.058594 111.898438 792.347656 112.074219 C 791.636719 112.25 790.921875 112.394531 790.195312 112.5 C 789.472656 112.605469 788.742188 112.675781 788.011719 112.710938 L 527.308594 124.515625 C 527.230469 124.519531 527.15625 124.519531 527.078125 124.519531 Z M 535.945312 89.738281 C 536.90625 93.703125 537.320312 97.726562 537.183594 101.804688 C 537.050781 105.882812 536.375 109.867188 535.15625 113.761719 L 787.535156 102.335938 C 788.324219 102.300781 789.097656 102.1875 789.859375 101.996094 C 790.621094 101.804688 791.359375 101.542969 792.070312 101.207031 C 792.78125 100.871094 793.453125 100.472656 794.085938 100.003906 C 794.71875 99.539062 795.300781 99.011719 795.832031 98.429688 C 796.359375 97.851562 796.828125 97.222656 797.234375 96.546875 C 797.640625 95.875 797.976562 95.167969 798.242188 94.429688 C 798.511719 93.6875 798.703125 92.929688 798.820312 92.152344 C 798.941406 91.375 798.980469 90.59375 798.945312 89.808594 L 798.945312 89.792969 C 798.910156 89.007812 798.796875 88.234375 798.609375 87.472656 C 798.421875 86.710938 798.160156 85.976562 797.828125 85.265625 C 797.496094 84.554688 797.097656 83.882812 796.632812 83.25 C 796.167969 82.617188 795.644531 82.039062 795.066406 81.507812 C 794.488281 80.980469 793.863281 80.511719 793.191406 80.105469 C 792.519531 79.699219 791.816406 79.363281 791.078125 79.09375 C 790.339844 78.828125 789.582031 78.632812 788.808594 78.515625 C 788.03125 78.398438 787.253906 78.355469 786.46875 78.390625 Z M 535.945312 89.738281 " fill-opacity="1" fill-rule="nonzero"/><g clip-path="url(#a1c3d76b22)"><path fill="#ffffff" d="M 471.285156 802.613281 L 197.695312 802.613281 C 197.355469 802.613281 197.019531 802.578125 196.683594 802.511719 C 196.347656 802.445312 196.023438 802.347656 195.710938 802.214844 C 195.394531 802.085938 195.09375 801.925781 194.8125 801.738281 C 194.527344 801.546875 194.265625 801.332031 194.023438 801.089844 C 193.785156 800.851562 193.570312 800.585938 193.378906 800.304688 C 193.191406 800.019531 193.03125 799.722656 192.898438 799.40625 C 192.769531 799.089844 192.671875 798.765625 192.605469 798.433594 C 192.539062 798.097656 192.503906 797.761719 192.503906 797.417969 L 192.503906 690.960938 C 192.503906 690.742188 192.519531 690.527344 192.546875 690.308594 C 192.574219 690.09375 192.613281 689.878906 192.667969 689.667969 C 192.722656 689.457031 192.789062 689.25 192.871094 689.046875 C 192.949219 688.84375 193.042969 688.648438 193.148438 688.457031 C 193.253906 688.265625 193.371094 688.082031 193.5 687.90625 C 193.628906 687.730469 193.765625 687.5625 193.917969 687.402344 C 194.066406 687.242188 194.222656 687.09375 194.394531 686.957031 C 194.5625 686.816406 194.738281 686.6875 194.921875 686.574219 C 195.105469 686.457031 195.296875 686.351562 195.496094 686.257812 C 195.691406 686.167969 195.894531 686.085938 196.101562 686.019531 C 196.308594 685.953125 196.519531 685.898438 196.734375 685.859375 C 196.949219 685.816406 197.164062 685.792969 197.382812 685.777344 C 197.601562 685.765625 197.820312 685.765625 198.035156 685.78125 C 198.253906 685.792969 198.46875 685.820312 198.683594 685.863281 C 198.898438 685.90625 199.109375 685.960938 199.316406 686.027344 C 199.523438 686.097656 199.726562 686.175781 199.921875 686.269531 C 205.148438 688.738281 210.4375 691.070312 215.789062 693.265625 C 221.136719 695.457031 226.539062 697.511719 231.996094 699.421875 C 237.453125 701.332031 242.957031 703.097656 248.503906 704.722656 C 254.054688 706.34375 259.640625 707.820312 265.269531 709.152344 C 270.894531 710.480469 276.550781 711.664062 282.238281 712.699219 C 287.925781 713.734375 293.640625 714.621094 299.375 715.355469 C 305.105469 716.09375 310.855469 716.679688 316.621094 717.117188 C 322.386719 717.550781 328.160156 717.835938 333.9375 717.96875 C 339.71875 718.105469 345.5 718.085938 351.277344 717.917969 C 357.054688 717.75 362.828125 717.429688 368.589844 716.960938 C 374.351562 716.492188 380.097656 715.871094 385.828125 715.101562 C 391.558594 714.328125 397.261719 713.410156 402.945312 712.339844 C 408.625 711.273438 414.277344 710.054688 419.894531 708.691406 C 425.511719 707.328125 431.089844 705.816406 436.632812 704.160156 C 442.171875 702.507812 447.664062 700.707031 453.109375 698.761719 C 458.554688 696.820312 463.945312 694.734375 469.28125 692.511719 C 469.675781 692.347656 470.082031 692.230469 470.507812 692.167969 C 470.929688 692.101562 471.355469 692.089844 471.78125 692.132812 C 472.207031 692.171875 472.621094 692.265625 473.023438 692.410156 C 473.425781 692.550781 473.804688 692.742188 474.164062 692.980469 C 474.519531 693.214844 474.839844 693.492188 475.128906 693.808594 C 475.414062 694.128906 475.660156 694.472656 475.863281 694.851562 C 476.0625 695.230469 476.21875 695.625 476.320312 696.039062 C 476.425781 696.457031 476.476562 696.875 476.476562 697.304688 L 476.476562 797.421875 C 476.476562 797.761719 476.441406 798.101562 476.375 798.433594 C 476.308594 798.769531 476.210938 799.09375 476.082031 799.410156 C 475.949219 799.722656 475.789062 800.023438 475.601562 800.304688 C 475.410156 800.589844 475.195312 800.851562 474.953125 801.09375 C 474.714844 801.332031 474.453125 801.546875 474.167969 801.738281 C 473.886719 801.925781 473.585938 802.085938 473.269531 802.214844 C 472.957031 802.347656 472.632812 802.445312 472.296875 802.511719 C 471.964844 802.578125 471.625 802.613281 471.285156 802.613281 Z M 202.886719 792.226562 L 466.09375 792.226562 L 466.09375 705.007812 C 460.847656 707.058594 455.554688 708.976562 450.214844 710.761719 C 444.875 712.546875 439.492188 714.203125 434.070312 715.722656 C 428.648438 717.242188 423.195312 718.628906 417.703125 719.882812 C 412.214844 721.132812 406.695312 722.25 401.152344 723.230469 C 395.605469 724.207031 390.039062 725.050781 384.453125 725.753906 C 378.867188 726.460938 373.265625 727.027344 367.652344 727.453125 C 362.035156 727.882812 356.414062 728.171875 350.785156 728.324219 C 345.15625 728.472656 339.527344 728.484375 333.898438 728.359375 C 328.265625 728.230469 322.644531 727.964844 317.027344 727.558594 C 311.410156 727.15625 305.808594 726.613281 300.21875 725.933594 C 294.628906 725.25 289.058594 724.433594 283.511719 723.476562 C 277.960938 722.519531 272.4375 721.425781 266.941406 720.199219 C 261.449219 718.96875 255.984375 717.605469 250.558594 716.109375 C 245.128906 714.609375 239.742188 712.980469 234.394531 711.214844 C 229.046875 709.453125 223.746094 707.554688 218.492188 705.53125 C 213.238281 703.503906 208.035156 701.351562 202.886719 699.066406 Z M 202.886719 792.226562 " fill-opacity="1" fill-rule="nonzero"/></g><path fill="#ffffff" d="M 236.070312 211.195312 C 245.460938 221.789062 258.328125 236.273438 258.328125 270.972656 C 258.328125 308.042969 244.152344 323.1875 233.785156 334.238281 C 226.980469 341.484375 225.015625 343.890625 225.015625 350.609375 L 190.667969 350.609375 C 190.667969 330.027344 200.695312 319.3125 208.722656 310.726562 C 216.898438 302.011719 223.984375 294.453125 223.984375 270.972656 C 223.984375 249.328125 218.273438 242.898438 210.375 234.03125 C 201.597656 224.132812 190.667969 211.828125 190.667969 184.5625 C 190.667969 160.890625 194.792969 145.460938 200.820312 134.09375 C 206.566406 123.292969 214.023438 116.175781 221.363281 109.144531 C 223.019531 107.554688 224.703125 105.933594 226.390625 104.246094 C 226.78125 103.890625 227.117188 103.488281 227.402344 103.042969 C 227.691406 102.59375 227.914062 102.121094 228.074219 101.617188 C 228.238281 101.109375 228.332031 100.59375 228.359375 100.066406 C 228.386719 99.535156 228.34375 99.011719 228.234375 98.496094 C 227.714844 96.441406 226.757812 94.621094 225.359375 93.03125 C 224.777344 92.351562 224.25 91.632812 223.78125 90.871094 C 223.308594 90.109375 222.902344 89.316406 222.558594 88.492188 C 222.214844 87.667969 221.933594 86.820312 221.722656 85.953125 C 221.511719 85.085938 221.371094 84.203125 221.296875 83.3125 C 221.222656 82.421875 221.222656 81.53125 221.289062 80.640625 C 221.355469 79.746094 221.492188 78.867188 221.699219 77.996094 C 221.902344 77.125 222.175781 76.277344 222.515625 75.453125 C 222.855469 74.625 223.257812 73.828125 223.722656 73.066406 L 252.363281 71.769531 C 255.234375 75.386719 257.535156 79.335938 259.269531 83.617188 C 261 87.902344 262.089844 92.339844 262.539062 96.9375 C 263.480469 107.304688 260.605469 118.609375 250.679688 128.542969 C 249.496094 129.722656 248.308594 130.878906 247.117188 132.007812 C 246.429688 132.695312 245.773438 133.351562 245.085938 133.972656 C 232.570312 145.933594 225.015625 153.148438 225.015625 184.5625 C 225.015625 198.773438 228.945312 203.207031 236.070312 211.195312 Z M 236.070312 211.195312 " fill-opacity="1" fill-rule="nonzero"/><path fill="#ffffff" d="M 303.378906 211.195312 C 312.777344 221.789062 325.636719 236.273438 325.636719 270.972656 C 325.636719 308.042969 311.46875 323.1875 301.101562 334.238281 C 294.296875 341.484375 292.324219 343.890625 292.324219 350.609375 L 257.988281 350.609375 C 257.988281 330.027344 268.003906 319.3125 276.0625 310.726562 C 284.242188 302.011719 291.292969 294.453125 291.292969 270.972656 C 291.292969 249.328125 285.582031 242.898438 277.714844 234.03125 C 268.914062 224.132812 257.988281 211.828125 257.988281 184.5625 C 257.988281 158.675781 262.914062 142.625 269.878906 130.976562 C 275.34375 121.855469 282.085938 115.488281 288.671875 109.144531 C 290.328125 107.554688 292.011719 105.933594 293.730469 104.246094 C 296.101562 101.875 296.324219 98.933594 294.351562 95.5 C 293.867188 94.621094 293.308594 93.800781 292.667969 93.03125 C 291.976562 92.222656 291.363281 91.359375 290.832031 90.4375 C 290.304688 89.515625 289.863281 88.554688 289.511719 87.550781 C 289.160156 86.546875 288.90625 85.519531 288.75 84.46875 C 288.589844 83.414062 288.53125 82.359375 288.570312 81.296875 C 288.613281 80.234375 288.75 79.183594 288.984375 78.148438 C 289.222656 77.109375 289.550781 76.105469 289.976562 75.128906 C 290.398438 74.15625 290.910156 73.230469 291.507812 72.347656 C 292.105469 71.46875 292.78125 70.652344 293.53125 69.902344 L 316.894531 68.847656 C 317.613281 69.453125 318.28125 70.113281 318.898438 70.828125 C 321.664062 74.128906 323.945312 77.738281 325.742188 81.65625 C 327.539062 85.570312 328.785156 89.65625 329.480469 93.910156 C 331.292969 105.085938 328.921875 117.644531 318.019531 128.542969 L 317.738281 128.820312 C 315.933594 130.601562 314.15625 132.320312 312.402344 133.972656 C 299.878906 145.933594 292.324219 153.148438 292.324219 184.5625 C 292.324219 198.773438 296.261719 203.207031 303.378906 211.195312 Z M 303.378906 211.195312 " fill-opacity="1" fill-rule="nonzero"/><path fill="#ffffff" d="M 370.695312 211.195312 C 380.085938 221.789062 392.957031 236.273438 392.957031 270.972656 C 392.957031 308.042969 378.777344 323.1875 368.441406 334.238281 C 361.636719 341.484375 359.671875 343.890625 359.671875 350.609375 L 325.328125 350.609375 C 325.328125 330.027344 335.320312 319.3125 343.371094 310.726562 C 351.558594 302.011719 358.609375 294.453125 358.609375 270.972656 C 358.609375 249.328125 352.921875 242.898438 345.03125 234.03125 C 336.253906 224.132812 325.328125 211.828125 325.328125 184.5625 C 325.328125 156.273438 331.199219 139.71875 339.226562 127.855469 C 344.25 120.359375 350.183594 114.734375 355.988281 109.144531 C 357.644531 107.554688 359.359375 105.933594 361.046875 104.246094 C 363.976562 101.304688 363.632812 97.527344 360.015625 93.03125 C 359.871094 92.878906 359.746094 92.714844 359.640625 92.535156 C 358.953125 91.675781 358.355469 90.761719 357.847656 89.789062 C 357.339844 88.816406 356.925781 87.804688 356.613281 86.75 C 356.300781 85.699219 356.089844 84.625 355.984375 83.53125 C 355.878906 82.4375 355.878906 81.34375 355.984375 80.253906 C 356.089844 79.160156 356.296875 78.085938 356.609375 77.035156 C 356.921875 75.980469 357.335938 74.96875 357.84375 73.996094 C 358.351562 73.019531 358.949219 72.105469 359.632812 71.246094 C 360.320312 70.390625 361.078125 69.605469 361.917969 68.894531 C 362.9375 68.011719 364.046875 67.265625 365.246094 66.648438 L 379.417969 66.011719 C 382.082031 67.050781 384.34375 68.65625 386.207031 70.828125 C 388.640625 73.730469 390.699219 76.875 392.386719 80.261719 C 394.078125 83.652344 395.347656 87.191406 396.199219 90.878906 C 398.761719 101.808594 397.476562 114.425781 387.988281 125.632812 C 387.171875 126.601562 386.300781 127.574219 385.335938 128.542969 C 383.425781 130.410156 381.550781 132.222656 379.710938 133.972656 C 367.195312 145.933594 359.671875 153.148438 359.671875 184.5625 C 359.671875 198.773438 363.570312 203.207031 370.695312 211.195312 Z M 370.695312 211.195312 " fill-opacity="1" fill-rule="nonzero"/><path fill="#ffffff" d="M 438.035156 211.199219 C 447.433594 221.789062 460.296875 236.277344 460.296875 270.972656 C 460.296875 308.042969 446.121094 323.1875 435.757812 334.242188 C 428.949219 341.484375 426.984375 343.890625 426.984375 350.605469 L 392.636719 350.605469 C 392.636719 330.023438 402.660156 319.3125 410.683594 310.726562 C 418.863281 302.011719 425.949219 294.457031 425.949219 270.972656 C 425.949219 249.332031 420.238281 242.898438 412.339844 234.027344 C 403.566406 224.128906 392.636719 211.824219 392.636719 184.5625 C 392.636719 153.675781 399.632812 136.78125 408.777344 124.699219 L 408.8125 124.699219 C 413.308594 118.730469 418.332031 113.921875 423.328125 109.144531 C 424.984375 107.550781 426.667969 105.929688 428.355469 104.242188 C 431.289062 101.308594 430.945312 97.53125 427.324219 93.03125 C 426.40625 91.976562 425.636719 90.820312 425.015625 89.566406 C 424.550781 88.632812 424.179688 87.667969 423.890625 86.667969 C 423.605469 85.664062 423.410156 84.648438 423.308594 83.613281 C 423.207031 82.574219 423.199219 81.539062 423.285156 80.5 C 423.371094 79.464844 423.550781 78.441406 423.824219 77.4375 C 424.097656 76.433594 424.457031 75.460938 424.90625 74.523438 C 425.355469 73.582031 425.882812 72.691406 426.496094 71.847656 C 427.105469 71.007812 427.789062 70.226562 428.539062 69.507812 C 429.292969 68.785156 430.101562 68.140625 430.972656 67.570312 C 431.84375 67 432.757812 66.511719 433.714844 66.105469 C 434.675781 65.699219 435.660156 65.382812 436.675781 65.15625 C 437.691406 64.929688 438.722656 64.796875 439.761719 64.757812 C 440.800781 64.71875 441.835938 64.773438 442.867188 64.925781 C 443.894531 65.074219 444.902344 65.3125 445.890625 65.644531 C 446.875 65.976562 447.824219 66.394531 448.734375 66.902344 C 449.644531 67.40625 450.503906 67.988281 451.308594 68.648438 C 452.113281 69.308594 452.851562 70.035156 453.523438 70.832031 C 457.773438 75.878906 460.855469 81.5625 462.765625 87.878906 C 465.949219 98.46875 465.761719 111.019531 457.769531 122.480469 L 457.738281 122.480469 C 456.230469 124.660156 454.53125 126.679688 452.648438 128.539062 C 450.773438 130.414062 448.902344 132.222656 447.027344 133.972656 C 434.539062 145.933594 426.984375 153.144531 426.984375 184.5625 C 426.984375 198.773438 430.917969 203.207031 438.035156 211.199219 Z M 438.035156 211.199219 " fill-opacity="1" fill-rule="nonzero"/><path fill="#ffffff" d="M 505.347656 211.199219 C 514.746094 221.789062 527.609375 236.277344 527.609375 270.972656 C 527.609375 308.042969 513.433594 323.1875 503.070312 334.242188 C 496.261719 341.484375 494.296875 343.890625 494.296875 350.605469 L 459.949219 350.605469 C 459.949219 330.023438 469.972656 319.3125 478.027344 310.726562 C 486.207031 302.011719 493.261719 294.457031 493.261719 270.972656 C 493.261719 249.332031 487.550781 242.898438 479.683594 234.027344 C 470.878906 224.128906 459.957031 211.824219 459.957031 184.5625 C 459.957031 150.867188 468.292969 133.847656 478.625 121.511719 L 478.65625 121.511719 C 482.425781 117.167969 486.421875 113.046875 490.648438 109.144531 C 492.300781 107.550781 493.988281 105.929688 495.703125 104.242188 C 498.640625 101.308594 498.265625 97.53125 494.640625 93.03125 C 492.996094 91.136719 491.828125 88.984375 491.148438 86.566406 C 490.890625 85.628906 490.710938 84.675781 490.617188 83.707031 C 490.519531 82.738281 490.503906 81.769531 490.574219 80.800781 C 490.640625 79.828125 490.789062 78.871094 491.019531 77.925781 C 491.25 76.980469 491.558594 76.0625 491.945312 75.167969 C 492.328125 74.273438 492.789062 73.421875 493.316406 72.605469 C 493.847656 71.789062 494.445312 71.023438 495.105469 70.308594 C 495.765625 69.59375 496.480469 68.941406 497.25 68.347656 C 498.023438 67.753906 498.835938 67.230469 499.695312 66.773438 C 500.554688 66.320312 501.449219 65.941406 502.371094 65.636719 C 503.296875 65.332031 504.238281 65.105469 505.203125 64.964844 C 506.164062 64.820312 507.128906 64.757812 508.101562 64.777344 C 509.074219 64.796875 510.039062 64.898438 510.996094 65.078125 C 511.949219 65.261719 512.882812 65.523438 513.792969 65.867188 C 514.707031 66.207031 515.582031 66.621094 516.421875 67.113281 C 517.261719 67.601562 518.054688 68.160156 518.804688 68.78125 C 519.550781 69.40625 520.238281 70.089844 520.867188 70.828125 C 524.417969 75.023438 527.144531 79.695312 529.046875 84.851562 C 532.921875 95.09375 533.730469 107.617188 527.082031 119.328125 C 525.140625 122.722656 522.777344 125.792969 519.996094 128.539062 C 518.089844 130.414062 516.21875 132.222656 514.375 133.972656 C 501.855469 145.933594 494.300781 153.144531 494.300781 184.5625 C 494.296875 198.773438 498.230469 203.207031 505.347656 211.199219 Z M 505.347656 211.199219 " fill-opacity="1" fill-rule="nonzero"/><g clip-path="url(#0ac7727ca2)"><path fill="#ffffff" d="M 120.933594 82.898438 C 120.214844 82.894531 119.496094 82.855469 118.78125 82.78125 C 118.066406 82.707031 117.355469 82.601562 116.652344 82.457031 C 115.945312 82.316406 115.25 82.140625 114.5625 81.929688 C 113.875 81.722656 113.199219 81.480469 112.535156 81.203125 C 111.867188 80.929688 111.21875 80.625 110.582031 80.285156 C 109.949219 79.949219 109.332031 79.582031 108.730469 79.183594 C 108.132812 78.789062 107.554688 78.363281 106.996094 77.910156 C 106.4375 77.457031 105.898438 76.980469 105.386719 76.472656 C 104.875 75.96875 104.386719 75.441406 103.925781 74.890625 C 103.464844 74.339844 103.03125 73.765625 102.625 73.171875 C 102.21875 72.578125 101.839844 71.96875 101.492188 71.339844 C 101.144531 70.707031 100.828125 70.0625 100.542969 69.402344 C 100.257812 68.742188 100.007812 68.070312 99.785156 67.386719 C 99.566406 66.703125 99.378906 66.007812 99.226562 65.304688 C 99.070312 64.601562 98.953125 63.894531 98.867188 63.179688 C 98.78125 62.464844 98.730469 61.75 98.714844 61.03125 C 98.699219 60.3125 98.71875 59.59375 98.769531 58.875 C 98.824219 58.15625 98.914062 57.445312 99.035156 56.734375 C 99.15625 56.027344 99.3125 55.324219 99.5 54.632812 C 99.691406 53.9375 99.914062 53.253906 100.167969 52.582031 C 100.425781 51.910156 100.710938 51.253906 101.03125 50.609375 C 101.351562 49.964844 101.699219 49.335938 102.078125 48.722656 C 102.457031 48.113281 102.867188 47.523438 103.300781 46.949219 C 103.738281 46.378906 104.203125 45.828125 104.691406 45.304688 C 105.179688 44.777344 105.695312 44.273438 106.234375 43.796875 C 106.769531 43.320312 107.332031 42.867188 107.910156 42.445312 C 108.492188 42.023438 109.09375 41.628906 109.710938 41.261719 C 110.332031 40.898438 110.96875 40.5625 111.617188 40.257812 C 112.269531 39.953125 112.933594 39.683594 113.613281 39.441406 C 114.292969 39.203125 114.980469 38.996094 115.675781 38.820312 C 116.375 38.648438 117.078125 38.507812 117.789062 38.402344 C 118.5 38.296875 119.214844 38.226562 119.933594 38.191406 L 785.980469 8 C 786.707031 7.976562 787.429688 7.988281 788.15625 8.039062 C 788.878906 8.085938 789.597656 8.171875 790.3125 8.289062 C 791.027344 8.40625 791.738281 8.5625 792.4375 8.75 C 793.140625 8.9375 793.828125 9.15625 794.507812 9.410156 C 795.1875 9.667969 795.851562 9.953125 796.503906 10.273438 C 797.15625 10.59375 797.789062 10.941406 798.40625 11.324219 C 799.023438 11.707031 799.621094 12.117188 800.199219 12.554688 C 800.777344 12.992188 801.332031 13.460938 801.863281 13.953125 C 802.394531 14.445312 802.902344 14.964844 803.382812 15.507812 C 803.863281 16.050781 804.320312 16.613281 804.746094 17.203125 C 805.171875 17.789062 805.570312 18.394531 805.9375 19.019531 C 806.304688 19.644531 806.640625 20.289062 806.945312 20.945312 C 807.25 21.605469 807.523438 22.273438 807.765625 22.960938 C 808.003906 23.644531 808.210938 24.339844 808.382812 25.042969 C 808.554688 25.75 808.691406 26.460938 808.796875 27.179688 C 808.898438 27.898438 808.964844 28.617188 809 29.34375 C 809.03125 30.066406 809.03125 30.792969 808.992188 31.515625 C 808.953125 32.242188 808.882812 32.964844 808.773438 33.679688 C 808.667969 34.398438 808.523438 35.109375 808.347656 35.8125 C 808.171875 36.515625 807.960938 37.210938 807.714844 37.894531 C 807.472656 38.574219 807.195312 39.246094 806.882812 39.902344 C 806.574219 40.558594 806.234375 41.199219 805.863281 41.820312 C 805.492188 42.445312 805.089844 43.046875 804.660156 43.632812 C 804.230469 44.214844 803.773438 44.777344 803.285156 45.316406 C 802.800781 45.855469 802.292969 46.371094 801.757812 46.859375 C 801.222656 47.351562 800.664062 47.8125 800.082031 48.25 C 799.503906 48.683594 798.902344 49.089844 798.285156 49.46875 C 797.664062 49.84375 797.027344 50.191406 796.375 50.507812 C 795.71875 50.820312 795.054688 51.105469 794.371094 51.355469 C 793.691406 51.605469 793 51.820312 792.296875 52.003906 C 791.597656 52.1875 790.886719 52.335938 790.171875 52.449219 C 789.453125 52.5625 788.734375 52.644531 788.011719 52.6875 L 379.652344 71.199219 L 121.960938 82.878906 C 121.570312 82.890625 121.253906 82.898438 120.933594 82.898438 Z M 787.007812 18.363281 C 786.824219 18.363281 786.636719 18.363281 786.453125 18.375 L 120.402344 48.566406 C 119.632812 48.605469 118.875 48.722656 118.125 48.910156 C 117.378906 49.097656 116.65625 49.355469 115.960938 49.683594 C 115.261719 50.011719 114.601562 50.402344 113.980469 50.859375 C 113.359375 51.3125 112.785156 51.824219 112.261719 52.386719 C 111.738281 52.953125 111.273438 53.5625 110.867188 54.21875 C 110.464844 54.875 110.125 55.5625 109.851562 56.28125 C 109.578125 57.003906 109.375 57.742188 109.246094 58.503906 C 109.113281 59.261719 109.058594 60.027344 109.074219 60.796875 C 109.09375 61.566406 109.183594 62.328125 109.347656 63.082031 C 109.511719 63.835938 109.746094 64.566406 110.050781 65.273438 C 110.355469 65.980469 110.726562 66.652344 111.160156 67.289062 C 111.59375 67.925781 112.085938 68.515625 112.632812 69.054688 C 113.179688 69.597656 113.777344 70.082031 114.417969 70.507812 C 115.058594 70.9375 115.734375 71.296875 116.445312 71.59375 C 117.15625 71.890625 117.890625 72.117188 118.644531 72.269531 C 119.398438 72.425781 120.164062 72.507812 120.933594 72.515625 C 121.144531 72.515625 121.351562 72.507812 121.5625 72.5 L 379.183594 60.824219 L 787.539062 42.3125 C 788.308594 42.273438 789.070312 42.160156 789.816406 41.972656 C 790.566406 41.785156 791.289062 41.527344 791.988281 41.199219 C 792.6875 40.875 793.347656 40.484375 793.972656 40.027344 C 794.59375 39.574219 795.167969 39.0625 795.695312 38.5 C 796.21875 37.933594 796.683594 37.320312 797.089844 36.667969 C 797.496094 36.011719 797.839844 35.324219 798.113281 34.601562 C 798.386719 33.878906 798.589844 33.136719 798.71875 32.378906 C 798.851562 31.617188 798.90625 30.851562 798.890625 30.082031 C 798.875 29.308594 798.78125 28.546875 798.617188 27.792969 C 798.453125 27.039062 798.21875 26.308594 797.914062 25.597656 C 797.609375 24.890625 797.238281 24.21875 796.800781 23.582031 C 796.367188 22.945312 795.875 22.355469 795.324219 21.8125 C 794.773438 21.269531 794.179688 20.785156 793.535156 20.359375 C 792.894531 19.933594 792.214844 19.570312 791.503906 19.277344 C 790.789062 18.980469 790.054688 18.757812 789.300781 18.601562 C 788.542969 18.449219 787.78125 18.367188 787.007812 18.363281 Z M 787.773438 47.5 Z M 787.773438 47.5 " fill-opacity="1" fill-rule="nonzero"/></g></svg>